<?xml version="1.0" encoding="utf-8" standalone="no"?>
<!DOCTYPE svg PUBLIC "-//W3C//DTD SVG 1.1//EN"
  "http://www.w3.org/Graphics/SVG/1.1/DTD/svg11.dtd">
<svg xmlns:xlink="http://www.w3.org/1999/xlink" width="518.740157pt" height="322.363104pt" viewBox="0 0 518.740157 322.363104" xmlns="http://www.w3.org/2000/svg" version="1.1">
 <metadata>
  <rdf:RDF xmlns:dc="http://purl.org/dc/elements/1.1/" xmlns:cc="http://creativecommons.org/ns#" xmlns:rdf="http://www.w3.org/1999/02/22-rdf-syntax-ns#">
   <cc:Work>
    <dc:type rdf:resource="http://purl.org/dc/dcmitype/StillImage"/>
    <dc:date>2026-09-27T00:00:00Z</dc:date>
    <dc:format>image/svg+xml</dc:format>
    <dc:creator>
     <cc:Agent>
      <dc:title>Matplotlib v3.11.2, https://matplotlib.org/</dc:title>
     </cc:Agent>
    </dc:creator>
   </cc:Work>
  </rdf:RDF>
 </metadata>
 <defs>
  <style type="text/css">*{stroke-linejoin: round; stroke-linecap: butt}</style>
 </defs>
 <g id="figure_1">
  <g id="patch_1">
   <path d="M 0 322.363104
L 518.740157 322.363104
L 518.740157 0
L 0 0
z
" style="fill: #ffffff"/>
  </g>
  <g id="axes_1">
   <g id="patch_2">
    <path d="M 98.610711 29.807273
L 181.508974 29.807273
L 181.508974 112.705536
L 98.610711 112.705536
z
" clip-path="url(#p9bfa94ba18)" style="fill: url(#ha437536ff9); stroke: #81909c; stroke-width: 0.6; stroke-linejoin: miter"/>
   </g>
   <g id="patch_3">
    <path d="M 98.610711 29.807273
L 173.219148 29.807273
L 173.219148 104.415709
L 98.610711 104.415709
z
" clip-path="url(#p9bfa94ba18)" style="fill: #c7e0e0; stroke: #008a96; stroke-width: 0.65; stroke-linejoin: miter"/>
   </g>
   <g id="patch_4">
    <path d="M 106.900537 38.097099
L 173.219148 38.097099
L 173.219148 104.415709
L 106.900537 104.415709
z
" clip-path="url(#p9bfa94ba18)" style="fill: #ffffff; stroke: #20313e; stroke-width: 0.8; stroke-linejoin: miter"/>
   </g>
   <g id="line2d_1">
    <path d="M 98.610711 26.698588
L 106.900537 26.698588
" clip-path="url(#p9bfa94ba18)" style="fill: none; stroke: #008a96; stroke-width: 0.7; stroke-linecap: square"/>
   </g>
   <g id="line2d_2">
    <path d="M 98.610711 25.403302
L 98.610711 27.993873
" clip-path="url(#p9bfa94ba18)" style="fill: none; stroke: #008a96; stroke-width: 0.7; stroke-linecap: square"/>
   </g>
   <g id="line2d_3">
    <path d="M 106.900537 25.403302
L 106.900537 27.993873
" clip-path="url(#p9bfa94ba18)" style="fill: none; stroke: #008a96; stroke-width: 0.7; stroke-linecap: square"/>
   </g>
   <g id="text_1">
    <text style="font-weight: 700; font-size: 8px; font-family: 'Liberation Sans'; text-anchor: start; fill: #20313e" x="82.031058" y="11.49351" transform="rotate(-0 82.031058 11.49351)">a</text>
   </g>
   <g id="text_2">
    <text style="font-size: 7px; font-family: 'Liberation Sans'; text-anchor: middle; fill: #20313e" x="140.059843" y="70.477357" transform="rotate(-0 140.059843 70.477357)">Retained core</text>
   </g>
   <g id="text_3">
    <text style="font-size: 6px; font-family: 'Liberation Sans'; text-anchor: middle; fill: #586874" x="140.059843" y="78.767451" transform="rotate(-0 140.059843 78.767451)">256 × 256</text>
   </g>
   <g id="text_4">
    <text style="font-size: 6px; font-family: 'Liberation Sans'; text-anchor: middle; fill: #008a96" x="102.755624" y="22.553675" transform="rotate(-0 102.755624 22.553675)">32</text>
   </g>
   <g id="text_5">
    <text style="font-size: 6px; font-family: 'Liberation Sans'; text-anchor: middle; fill: #586874" x="140.059843" y="120.995362" transform="rotate(-0 140.059843 120.995362)">Same coded area: 320 × 320</text>
   </g>
   <g id="text_6">
    <text style="font-size: 6.7px; font-family: 'Liberation Sans'; text-anchor: start; fill: #20313e" x="94.724855" y="11.963104" transform="rotate(-0 94.724855 11.963104)">32-pixel halo · 288 → 320</text>
   </g>
  </g>
  <g id="axes_2">
   <g id="patch_5">
    <path d="M 352.793388 29.807273
L 435.691651 29.807273
L 435.691651 112.705536
L 352.793388 112.705536
z
" clip-path="url(#p50e2780959)" style="fill: url(#ha437536ff9); stroke: #81909c; stroke-width: 0.6; stroke-linejoin: miter"/>
   </g>
   <g id="patch_6">
    <path d="M 352.793388 29.807273
L 435.691651 29.807273
L 435.691651 112.705536
L 352.793388 112.705536
z
" clip-path="url(#p50e2780959)" style="fill: #c7e0e0; stroke: #008a96; stroke-width: 0.65; stroke-linejoin: miter"/>
   </g>
   <g id="patch_7">
    <path d="M 369.373041 46.386925
L 435.691651 46.386925
L 435.691651 112.705536
L 369.373041 112.705536
z
" clip-path="url(#p50e2780959)" style="fill: #ffffff; stroke: #20313e; stroke-width: 0.8; stroke-linejoin: miter"/>
   </g>
   <g id="line2d_4">
    <path d="M 352.793388 26.698588
L 369.373041 26.698588
" clip-path="url(#p50e2780959)" style="fill: none; stroke: #008a96; stroke-width: 0.7; stroke-linecap: square"/>
   </g>
   <g id="line2d_5">
    <path d="M 352.793388 25.403302
L 352.793388 27.993873
" clip-path="url(#p50e2780959)" style="fill: none; stroke: #008a96; stroke-width: 0.7; stroke-linecap: square"/>
   </g>
   <g id="line2d_6">
    <path d="M 369.373041 25.403302
L 369.373041 27.993873
" clip-path="url(#p50e2780959)" style="fill: none; stroke: #008a96; stroke-width: 0.7; stroke-linecap: square"/>
   </g>
   <g id="text_7">
    <text style="font-weight: 700; font-size: 8px; font-family: 'Liberation Sans'; text-anchor: start; fill: #20313e" x="336.213736" y="11.49351" transform="rotate(-0 336.213736 11.49351)">b</text>
   </g>
   <g id="text_8">
    <text style="font-size: 7px; font-family: 'Liberation Sans'; text-anchor: middle; fill: #20313e" x="402.532346" y="78.767183" transform="rotate(-0 402.532346 78.767183)">Retained core</text>
   </g>
   <g id="text_9">
    <text style="font-size: 6px; font-family: 'Liberation Sans'; text-anchor: middle; fill: #586874" x="402.532346" y="87.057277" transform="rotate(-0 402.532346 87.057277)">256 × 256</text>
   </g>
   <g id="text_10">
    <text style="font-size: 6px; font-family: 'Liberation Sans'; text-anchor: middle; fill: #008a96" x="361.083214" y="22.553675" transform="rotate(-0 361.083214 22.553675)">64</text>
   </g>
   <g id="text_11">
    <text style="font-size: 6px; font-family: 'Liberation Sans'; text-anchor: middle; fill: #586874" x="394.24252" y="120.995362" transform="rotate(-0 394.24252 120.995362)">Same coded area: 320 × 320</text>
   </g>
   <g id="text_12">
    <text style="font-size: 6.7px; font-family: 'Liberation Sans'; text-anchor: start; fill: #20313e" x="348.907532" y="11.963104" transform="rotate(-0 348.907532 11.963104)">64-pixel halo · 320 → 320</text>
   </g>
  </g>
  <g id="axes_3">
   <g id="patch_8">
    <path d="M 44.092913 271.963104
L 233.433071 271.963104
L 233.433071 181.963104
L 44.092913 181.963104
z
" style="fill: #ffffff"/>
   </g>
   <g id="matplotlib.axis_1">
    <g id="xtick_1">
     <g id="line2d_7">
      <path d="M 44.092913 271.963104
L 44.092913 181.963104
" clip-path="url(#pfb6b83c34a)" style="fill: none; stroke: #e5eaed; stroke-width: 0.5; stroke-linecap: square"/>
     </g>
     <g id="line2d_8">
      <defs>
       <path id="m399702b5b7" d="M 0 0
L 0 2.5
" style="stroke: #586874; stroke-width: 0.5"/>
      </defs>
      <g>
       <use xlink:href="#m399702b5b7" x="44.092913" y="271.963104" style="fill: #586874; stroke: #586874; stroke-width: 0.5"/>
      </g>
     </g>
     <g id="text_13">
      <text style="font-size: 6px; font-family: 'Liberation Sans'; text-anchor: middle; fill: #586874" x="44.092913" y="282.331268" transform="rotate(-0 44.092913 282.331268)">0</text>
     </g>
    </g>
    <g id="xtick_2">
     <g id="line2d_9">
      <path d="M 98.190101 271.963104
L 98.190101 181.963104
" clip-path="url(#pfb6b83c34a)" style="fill: none; stroke: #e5eaed; stroke-width: 0.5; stroke-linecap: square"/>
     </g>
     <g id="line2d_10">
      <g>
       <use xlink:href="#m399702b5b7" x="98.190101" y="271.963104" style="fill: #586874; stroke: #586874; stroke-width: 0.5"/>
      </g>
     </g>
     <g id="text_14">
      <text style="font-size: 6px; font-family: 'Liberation Sans'; text-anchor: middle; fill: #586874" x="98.190101" y="282.331268" transform="rotate(-0 98.190101 282.331268)">50</text>
     </g>
    </g>
    <g id="xtick_3">
     <g id="line2d_11">
      <path d="M 152.287289 271.963104
L 152.287289 181.963104
" clip-path="url(#pfb6b83c34a)" style="fill: none; stroke: #e5eaed; stroke-width: 0.5; stroke-linecap: square"/>
     </g>
     <g id="line2d_12">
      <g>
       <use xlink:href="#m399702b5b7" x="152.287289" y="271.963104" style="fill: #586874; stroke: #586874; stroke-width: 0.5"/>
      </g>
     </g>
     <g id="text_15">
      <text style="font-size: 6px; font-family: 'Liberation Sans'; text-anchor: middle; fill: #586874" x="152.287289" y="282.331268" transform="rotate(-0 152.287289 282.331268)">100</text>
     </g>
    </g>
    <g id="xtick_4">
     <g id="line2d_13">
      <path d="M 206.384477 271.963104
L 206.384477 181.963104
" clip-path="url(#pfb6b83c34a)" style="fill: none; stroke: #e5eaed; stroke-width: 0.5; stroke-linecap: square"/>
     </g>
     <g id="line2d_14">
      <g>
       <use xlink:href="#m399702b5b7" x="206.384477" y="271.963104" style="fill: #586874; stroke: #586874; stroke-width: 0.5"/>
      </g>
     </g>
     <g id="text_16">
      <text style="font-size: 6px; font-family: 'Liberation Sans'; text-anchor: middle; fill: #586874" x="206.384477" y="282.331268" transform="rotate(-0 206.384477 282.331268)">150</text>
     </g>
    </g>
    <g id="text_17">
     <text style="font-size: 6.5px; font-family: 'Liberation Sans'; text-anchor: middle; fill: #20313e" x="138.762992" y="292.326141" transform="rotate(-0 138.762992 292.326141)">Conv2d MACs / full-frame D12 (%)</text>
    </g>
   </g>
   <g id="matplotlib.axis_2">
    <g id="ytick_1">
     <g id="line2d_15">
      <defs>
       <path id="m2a17d90eda" d="M 0 0
L -2.5 0
" style="stroke: #586874; stroke-width: 0.5"/>
      </defs>
      <g>
       <use xlink:href="#m2a17d90eda" x="44.092913" y="190.696179" style="fill: #586874; stroke: #586874; stroke-width: 0.5"/>
      </g>
     </g>
     <g id="text_18">
      <text style="font-size: 6px; font-family: 'Liberation Sans'; text-anchor: end; fill: #586874" x="38.092913" y="192.880261" transform="rotate(-0 38.092913 192.880261)">D2</text>
     </g>
    </g>
    <g id="ytick_2">
     <g id="line2d_16">
      <g>
       <use xlink:href="#m2a17d90eda" x="44.092913" y="205.202949" style="fill: #586874; stroke: #586874; stroke-width: 0.5"/>
      </g>
     </g>
     <g id="text_19">
      <text style="font-size: 6px; font-family: 'Liberation Sans'; text-anchor: end; fill: #586874" x="38.092913" y="207.387031" transform="rotate(-0 38.092913 207.387031)">D4</text>
     </g>
    </g>
    <g id="ytick_3">
     <g id="line2d_17">
      <g>
       <use xlink:href="#m2a17d90eda" x="44.092913" y="219.709719" style="fill: #586874; stroke: #586874; stroke-width: 0.5"/>
      </g>
     </g>
     <g id="text_20">
      <text style="font-size: 6px; font-family: 'Liberation Sans'; text-anchor: end; fill: #586874" x="38.092913" y="221.893801" transform="rotate(-0 38.092913 221.893801)">D6</text>
     </g>
    </g>
    <g id="ytick_4">
     <g id="line2d_18">
      <g>
       <use xlink:href="#m2a17d90eda" x="44.092913" y="234.216489" style="fill: #586874; stroke: #586874; stroke-width: 0.5"/>
      </g>
     </g>
     <g id="text_21">
      <text style="font-size: 6px; font-family: 'Liberation Sans'; text-anchor: end; fill: #586874" x="38.092913" y="236.400571" transform="rotate(-0 38.092913 236.400571)">D8</text>
     </g>
    </g>
    <g id="ytick_5">
     <g id="line2d_19">
      <g>
       <use xlink:href="#m2a17d90eda" x="44.092913" y="248.723259" style="fill: #586874; stroke: #586874; stroke-width: 0.5"/>
      </g>
     </g>
     <g id="text_22">
      <text style="font-size: 6px; font-family: 'Liberation Sans'; text-anchor: end; fill: #586874" x="38.092913" y="250.907341" transform="rotate(-0 38.092913 250.907341)">D10</text>
     </g>
    </g>
    <g id="ytick_6">
     <g id="line2d_20">
      <g>
       <use xlink:href="#m2a17d90eda" x="44.092913" y="263.230028" style="fill: #586874; stroke: #586874; stroke-width: 0.5"/>
      </g>
     </g>
     <g id="text_23">
      <text style="font-size: 6px; font-family: 'Liberation Sans'; text-anchor: end; fill: #586874" x="38.092913" y="265.41411" transform="rotate(-0 38.092913 265.41411)">D12</text>
     </g>
    </g>
   </g>
   <g id="patch_9">
    <path d="M 44.092913 186.054013
L 100.12882 186.054013
L 100.12882 190.406044
L 44.092913 190.406044
z
" clip-path="url(#pfb6b83c34a)" style="fill: #008a96"/>
   </g>
   <g id="patch_10">
    <path d="M 44.092913 200.560783
L 110.560514 200.560783
L 110.560514 204.912814
L 44.092913 204.912814
z
" clip-path="url(#pfb6b83c34a)" style="fill: #008a96"/>
   </g>
   <g id="patch_11">
    <path d="M 44.092913 215.067553
L 120.992207 215.067553
L 120.992207 219.419584
L 44.092913 219.419584
z
" clip-path="url(#pfb6b83c34a)" style="fill: #008a96"/>
   </g>
   <g id="patch_12">
    <path d="M 44.092913 229.574322
L 131.423901 229.574322
L 131.423901 233.926353
L 44.092913 233.926353
z
" clip-path="url(#pfb6b83c34a)" style="fill: #008a96"/>
   </g>
   <g id="patch_13">
    <path d="M 44.092913 244.081092
L 141.855595 244.081092
L 141.855595 248.433123
L 44.092913 248.433123
z
" clip-path="url(#pfb6b83c34a)" style="fill: #008a96"/>
   </g>
   <g id="patch_14">
    <path d="M 44.092913 258.587862
L 152.287289 258.587862
L 152.287289 262.939893
L 44.092913 262.939893
z
" clip-path="url(#pfb6b83c34a)" style="fill: #008a96"/>
   </g>
   <g id="patch_15">
    <path d="M 44.092913 190.986315
L 131.649017 190.986315
L 131.649017 195.338346
L 44.092913 195.338346
z
" clip-path="url(#pfb6b83c34a)" style="fill: #bf783d"/>
   </g>
   <g id="patch_16">
    <path d="M 44.092913 205.493084
L 147.948539 205.493084
L 147.948539 209.845115
L 44.092913 209.845115
z
" clip-path="url(#pfb6b83c34a)" style="fill: #bf783d"/>
   </g>
   <g id="patch_17">
    <path d="M 44.092913 219.999854
L 164.24806 219.999854
L 164.24806 224.351885
L 44.092913 224.351885
z
" clip-path="url(#pfb6b83c34a)" style="fill: #bf783d"/>
   </g>
   <g id="patch_18">
    <path d="M 44.092913 234.506624
L 180.547582 234.506624
L 180.547582 238.858655
L 44.092913 238.858655
z
" clip-path="url(#pfb6b83c34a)" style="fill: #bf783d"/>
   </g>
   <g id="patch_19">
    <path d="M 44.092913 249.013394
L 196.847104 249.013394
L 196.847104 253.365425
L 44.092913 253.365425
z
" clip-path="url(#pfb6b83c34a)" style="fill: #bf783d"/>
   </g>
   <g id="patch_20">
    <path d="M 44.092913 263.520164
L 213.146625 263.520164
L 213.146625 267.872195
L 44.092913 267.872195
z
" clip-path="url(#pfb6b83c34a)" style="fill: #bf783d"/>
   </g>
   <g id="patch_21">
    <path d="M 44.092913 271.963104
L 44.092913 181.963104
" style="fill: none; stroke: #000000; stroke-width: 0.55; stroke-linejoin: miter; stroke-linecap: square"/>
   </g>
   <g id="patch_22">
    <path d="M 44.092913 271.963104
L 233.433071 271.963104
" style="fill: none; stroke: #000000; stroke-width: 0.55; stroke-linejoin: miter; stroke-linecap: square"/>
   </g>
   <g id="text_24">
    <text style="font-weight: 700; font-size: 8px; font-family: 'Liberation Sans'; text-anchor: start; fill: #20313e" x="17.585291" y="174.42951" transform="rotate(-0 17.585291 174.42951)">c</text>
   </g>
   <g id="text_25">
    <g id="patch_23">
     <path d="M 101.439735 190.982067
L 112.183423 190.982067
L 112.183423 185.477989
L 101.439735 185.477989
z
" style="fill: #ffffff"/>
    </g>
    <text style="font-size: 5.2px; font-family: 'Liberation Sans'; text-anchor: start; fill: #586874" x="101.751735" y="189.575732" transform="rotate(-0 101.751735 189.575732)">51.8</text>
   </g>
   <g id="text_26">
    <g id="patch_24">
     <path d="M 111.871429 205.488837
L 122.615117 205.488837
L 122.615117 199.984759
L 111.871429 199.984759
z
" style="fill: #ffffff"/>
    </g>
    <text style="font-size: 5.2px; font-family: 'Liberation Sans'; text-anchor: start; fill: #586874" x="112.183429" y="204.082501" transform="rotate(-0 112.183429 204.082501)">61.4</text>
   </g>
   <g id="text_27">
    <g id="patch_25">
     <path d="M 122.303123 219.995607
L 133.046811 219.995607
L 133.046811 214.491529
L 122.303123 214.491529
z
" style="fill: #ffffff"/>
    </g>
    <text style="font-size: 5.2px; font-family: 'Liberation Sans'; text-anchor: start; fill: #586874" x="122.615123" y="218.589271" transform="rotate(-0 122.615123 218.589271)">71.1</text>
   </g>
   <g id="text_28">
    <g id="patch_26">
     <path d="M 132.734817 234.502377
L 143.478504 234.502377
L 143.478504 228.998299
L 132.734817 228.998299
z
" style="fill: #ffffff"/>
    </g>
    <text style="font-size: 5.2px; font-family: 'Liberation Sans'; text-anchor: start; fill: #586874" x="133.046817" y="233.096041" transform="rotate(-0 133.046817 233.096041)">80.7</text>
   </g>
   <g id="text_29">
    <g id="patch_27">
     <path d="M 143.166511 249.009147
L 153.910198 249.009147
L 153.910198 243.505069
L 143.166511 243.505069
z
" style="fill: #ffffff"/>
    </g>
    <text style="font-size: 5.2px; font-family: 'Liberation Sans'; text-anchor: start; fill: #586874" x="143.478511" y="247.602811" transform="rotate(-0 143.478511 247.602811)">90.4</text>
   </g>
   <g id="text_30">
    <g id="patch_28">
     <path d="M 153.598205 263.515917
L 167.23358 263.515917
L 167.23358 258.011838
L 153.598205 258.011838
z
" style="fill: #ffffff"/>
    </g>
    <text style="font-size: 5.2px; font-family: 'Liberation Sans'; text-anchor: start; fill: #586874" x="153.910205" y="262.109581" transform="rotate(-0 153.910205 262.109581)">100.0</text>
   </g>
   <g id="text_31">
    <g id="patch_29">
     <path d="M 132.959933 195.914369
L 143.70362 195.914369
L 143.70362 190.410291
L 132.959933 190.410291
z
" style="fill: #ffffff"/>
    </g>
    <text style="font-size: 5.2px; font-family: 'Liberation Sans'; text-anchor: start; fill: #586874" x="133.271933" y="194.508033" transform="rotate(-0 133.271933 194.508033)">80.9</text>
   </g>
   <g id="text_32">
    <g id="patch_30">
     <path d="M 149.259454 210.421139
L 160.003142 210.421139
L 160.003142 204.917061
L 149.259454 204.917061
z
" style="fill: #ffffff"/>
    </g>
    <text style="font-size: 5.2px; font-family: 'Liberation Sans'; text-anchor: start; fill: #586874" x="149.571454" y="209.014803" transform="rotate(-0 149.571454 209.014803)">96.0</text>
   </g>
   <g id="text_33">
    <g id="patch_31">
     <path d="M 165.558976 224.927909
L 179.194351 224.927909
L 179.194351 219.423831
L 165.558976 219.423831
z
" style="fill: #ffffff"/>
    </g>
    <text style="font-size: 5.2px; font-family: 'Liberation Sans'; text-anchor: start; fill: #586874" x="165.870976" y="223.521573" transform="rotate(-0 165.870976 223.521573)">111.1</text>
   </g>
   <g id="text_34">
    <g id="patch_32">
     <path d="M 181.858498 239.434679
L 195.493873 239.434679
L 195.493873 233.930601
L 181.858498 233.930601
z
" style="fill: #ffffff"/>
    </g>
    <text style="font-size: 5.2px; font-family: 'Liberation Sans'; text-anchor: start; fill: #586874" x="182.170498" y="238.028343" transform="rotate(-0 182.170498 238.028343)">126.1</text>
   </g>
   <g id="text_35">
    <g id="patch_33">
     <path d="M 198.158019 253.941449
L 211.793394 253.941449
L 211.793394 248.43737
L 198.158019 248.43737
z
" style="fill: #ffffff"/>
    </g>
    <text style="font-size: 5.2px; font-family: 'Liberation Sans'; text-anchor: start; fill: #586874" x="198.470019" y="252.535113" transform="rotate(-0 198.470019 252.535113)">141.2</text>
   </g>
   <g id="text_36">
    <g id="patch_34">
     <path d="M 214.457541 268.448218
L 228.092916 268.448218
L 228.092916 262.94414
L 214.457541 262.94414
z
" style="fill: #ffffff"/>
    </g>
    <text style="font-size: 5.2px; font-family: 'Liberation Sans'; text-anchor: start; fill: #586874" x="214.769541" y="267.041882" transform="rotate(-0 214.769541 267.041882)">156.2</text>
   </g>
   <g id="line2d_21">
    <path d="M 152.287289 271.963104
L 152.287289 181.963104
" clip-path="url(#pfb6b83c34a)" style="fill: none; stroke-dasharray: 2.59,1.12; stroke-dashoffset: 0; stroke: #20313e; stroke-width: 0.7"/>
   </g>
   <g id="text_37">
    <text style="font-size: 6.7px; font-family: 'Liberation Sans'; text-anchor: start; fill: #20313e" x="44.092913" y="173.963104" transform="rotate(-0 44.092913 173.963104)">Neural decoder</text>
   </g>
  </g>
  <g id="axes_4">
   <g id="patch_35">
    <path d="M 298.275591 271.963104
L 487.615748 271.963104
L 487.615748 181.963104
L 298.275591 181.963104
z
" style="fill: #ffffff"/>
   </g>
   <g id="matplotlib.axis_3">
    <g id="xtick_5">
     <g id="line2d_22">
      <path d="M 298.275591 271.963104
L 298.275591 181.963104
" clip-path="url(#pa2e8449444)" style="fill: none; stroke: #e5eaed; stroke-width: 0.5; stroke-linecap: square"/>
     </g>
     <g id="line2d_23">
      <g>
       <use xlink:href="#m399702b5b7" x="298.275591" y="271.963104" style="fill: #586874; stroke: #586874; stroke-width: 0.5"/>
      </g>
     </g>
     <g id="text_38">
      <text style="font-size: 6px; font-family: 'Liberation Sans'; text-anchor: middle; fill: #586874" x="298.275591" y="282.331268" transform="rotate(-0 298.275591 282.331268)">0</text>
     </g>
    </g>
    <g id="xtick_6">
     <g id="line2d_24">
      <path d="M 352.372778 271.963104
L 352.372778 181.963104
" clip-path="url(#pa2e8449444)" style="fill: none; stroke: #e5eaed; stroke-width: 0.5; stroke-linecap: square"/>
     </g>
     <g id="line2d_25">
      <g>
       <use xlink:href="#m399702b5b7" x="352.372778" y="271.963104" style="fill: #586874; stroke: #586874; stroke-width: 0.5"/>
      </g>
     </g>
     <g id="text_39">
      <text style="font-size: 6px; font-family: 'Liberation Sans'; text-anchor: middle; fill: #586874" x="352.372778" y="282.331268" transform="rotate(-0 352.372778 282.331268)">50</text>
     </g>
    </g>
    <g id="xtick_7">
     <g id="line2d_26">
      <path d="M 406.469966 271.963104
L 406.469966 181.963104
" clip-path="url(#pa2e8449444)" style="fill: none; stroke: #e5eaed; stroke-width: 0.5; stroke-linecap: square"/>
     </g>
     <g id="line2d_27">
      <g>
       <use xlink:href="#m399702b5b7" x="406.469966" y="271.963104" style="fill: #586874; stroke: #586874; stroke-width: 0.5"/>
      </g>
     </g>
     <g id="text_40">
      <text style="font-size: 6px; font-family: 'Liberation Sans'; text-anchor: middle; fill: #586874" x="406.469966" y="282.331268" transform="rotate(-0 406.469966 282.331268)">100</text>
     </g>
    </g>
    <g id="xtick_8">
     <g id="line2d_28">
      <path d="M 460.567154 271.963104
L 460.567154 181.963104
" clip-path="url(#pa2e8449444)" style="fill: none; stroke: #e5eaed; stroke-width: 0.5; stroke-linecap: square"/>
     </g>
     <g id="line2d_29">
      <g>
       <use xlink:href="#m399702b5b7" x="460.567154" y="271.963104" style="fill: #586874; stroke: #586874; stroke-width: 0.5"/>
      </g>
     </g>
     <g id="text_41">
      <text style="font-size: 6px; font-family: 'Liberation Sans'; text-anchor: middle; fill: #586874" x="460.567154" y="282.331268" transform="rotate(-0 460.567154 282.331268)">150</text>
     </g>
    </g>
    <g id="text_42">
     <text style="font-size: 6.5px; font-family: 'Liberation Sans'; text-anchor: middle; fill: #20313e" x="392.945669" y="292.326141" transform="rotate(-0 392.945669 292.326141)">Conv2d MACs / full-frame D12 (%)</text>
    </g>
   </g>
   <g id="matplotlib.axis_4">
    <g id="ytick_7">
     <g id="line2d_30">
      <g>
       <use xlink:href="#m2a17d90eda" x="298.275591" y="190.696179" style="fill: #586874; stroke: #586874; stroke-width: 0.5"/>
      </g>
     </g>
     <g id="text_43">
      <text style="font-size: 6px; font-family: 'Liberation Sans'; text-anchor: end; fill: #586874" x="292.275591" y="192.880261" transform="rotate(-0 292.275591 192.880261)">D2</text>
     </g>
    </g>
    <g id="ytick_8">
     <g id="line2d_31">
      <g>
       <use xlink:href="#m2a17d90eda" x="298.275591" y="205.202949" style="fill: #586874; stroke: #586874; stroke-width: 0.5"/>
      </g>
     </g>
     <g id="text_44">
      <text style="font-size: 6px; font-family: 'Liberation Sans'; text-anchor: end; fill: #586874" x="292.275591" y="207.387031" transform="rotate(-0 292.275591 207.387031)">D4</text>
     </g>
    </g>
    <g id="ytick_9">
     <g id="line2d_32">
      <g>
       <use xlink:href="#m2a17d90eda" x="298.275591" y="219.709719" style="fill: #586874; stroke: #586874; stroke-width: 0.5"/>
      </g>
     </g>
     <g id="text_45">
      <text style="font-size: 6px; font-family: 'Liberation Sans'; text-anchor: end; fill: #586874" x="292.275591" y="221.893801" transform="rotate(-0 292.275591 221.893801)">D6</text>
     </g>
    </g>
    <g id="ytick_10">
     <g id="line2d_33">
      <g>
       <use xlink:href="#m2a17d90eda" x="298.275591" y="234.216489" style="fill: #586874; stroke: #586874; stroke-width: 0.5"/>
      </g>
     </g>
     <g id="text_46">
      <text style="font-size: 6px; font-family: 'Liberation Sans'; text-anchor: end; fill: #586874" x="292.275591" y="236.400571" transform="rotate(-0 292.275591 236.400571)">D8</text>
     </g>
    </g>
    <g id="ytick_11">
     <g id="line2d_34">
      <g>
       <use xlink:href="#m2a17d90eda" x="298.275591" y="248.723259" style="fill: #586874; stroke: #586874; stroke-width: 0.5"/>
      </g>
     </g>
     <g id="text_47">
      <text style="font-size: 6px; font-family: 'Liberation Sans'; text-anchor: end; fill: #586874" x="292.275591" y="250.907341" transform="rotate(-0 292.275591 250.907341)">D10</text>
     </g>
    </g>
    <g id="ytick_12">
     <g id="line2d_35">
      <g>
       <use xlink:href="#m2a17d90eda" x="298.275591" y="263.230028" style="fill: #586874; stroke: #586874; stroke-width: 0.5"/>
      </g>
     </g>
     <g id="text_48">
      <text style="font-size: 6px; font-family: 'Liberation Sans'; text-anchor: end; fill: #586874" x="292.275591" y="265.41411" transform="rotate(-0 292.275591 265.41411)">D12</text>
     </g>
    </g>
   </g>
   <g id="patch_36">
    <path d="M 298.275591 186.054013
L 367.936066 186.054013
L 367.936066 190.406044
L 298.275591 190.406044
z
" clip-path="url(#pa2e8449444)" style="fill: #008a96"/>
   </g>
   <g id="patch_37">
    <path d="M 298.275591 200.560783
L 375.642846 200.560783
L 375.642846 204.912814
L 298.275591 204.912814
z
" clip-path="url(#pa2e8449444)" style="fill: #008a96"/>
   </g>
   <g id="patch_38">
    <path d="M 298.275591 215.067553
L 383.349626 215.067553
L 383.349626 219.419584
L 298.275591 219.419584
z
" clip-path="url(#pa2e8449444)" style="fill: #008a96"/>
   </g>
   <g id="patch_39">
    <path d="M 298.275591 229.574322
L 391.056406 229.574322
L 391.056406 233.926353
L 298.275591 233.926353
z
" clip-path="url(#pa2e8449444)" style="fill: #008a96"/>
   </g>
   <g id="patch_40">
    <path d="M 298.275591 244.081092
L 398.763186 244.081092
L 398.763186 248.433123
L 298.275591 248.433123
z
" clip-path="url(#pa2e8449444)" style="fill: #008a96"/>
   </g>
   <g id="patch_41">
    <path d="M 298.275591 258.587862
L 406.469966 258.587862
L 406.469966 262.939893
L 298.275591 262.939893
z
" clip-path="url(#pa2e8449444)" style="fill: #008a96"/>
   </g>
   <g id="patch_42">
    <path d="M 298.275591 190.986315
L 407.120083 190.986315
L 407.120083 195.338346
L 298.275591 195.338346
z
" clip-path="url(#pa2e8449444)" style="fill: #bf783d"/>
   </g>
   <g id="patch_43">
    <path d="M 298.275591 205.493084
L 419.161927 205.493084
L 419.161927 209.845115
L 298.275591 209.845115
z
" clip-path="url(#pa2e8449444)" style="fill: #bf783d"/>
   </g>
   <g id="patch_44">
    <path d="M 298.275591 219.999854
L 431.203771 219.999854
L 431.203771 224.351885
L 298.275591 224.351885
z
" clip-path="url(#pa2e8449444)" style="fill: #bf783d"/>
   </g>
   <g id="patch_45">
    <path d="M 298.275591 234.506624
L 443.245615 234.506624
L 443.245615 238.858655
L 298.275591 238.858655
z
" clip-path="url(#pa2e8449444)" style="fill: #bf783d"/>
   </g>
   <g id="patch_46">
    <path d="M 298.275591 249.013394
L 455.287459 249.013394
L 455.287459 253.365425
L 298.275591 253.365425
z
" clip-path="url(#pa2e8449444)" style="fill: #bf783d"/>
   </g>
   <g id="patch_47">
    <path d="M 298.275591 263.520164
L 467.329303 263.520164
L 467.329303 267.872195
L 298.275591 267.872195
z
" clip-path="url(#pa2e8449444)" style="fill: #bf783d"/>
   </g>
   <g id="patch_48">
    <path d="M 298.275591 271.963104
L 298.275591 181.963104
" style="fill: none; stroke: #000000; stroke-width: 0.55; stroke-linejoin: miter; stroke-linecap: square"/>
   </g>
   <g id="patch_49">
    <path d="M 298.275591 271.963104
L 487.615748 271.963104
" style="fill: none; stroke: #000000; stroke-width: 0.55; stroke-linejoin: miter; stroke-linecap: square"/>
   </g>
   <g id="text_49">
    <text style="font-weight: 700; font-size: 8px; font-family: 'Liberation Sans'; text-anchor: start; fill: #20313e" x="271.767969" y="174.42951" transform="rotate(-0 271.767969 174.42951)">d</text>
   </g>
   <g id="text_50">
    <g id="patch_50">
     <path d="M 369.246981 190.982067
L 379.990669 190.982067
L 379.990669 185.477989
L 369.246981 185.477989
z
" style="fill: #ffffff"/>
    </g>
    <text style="font-size: 5.2px; font-family: 'Liberation Sans'; text-anchor: start; fill: #586874" x="369.558981" y="189.575732" transform="rotate(-0 369.558981 189.575732)">64.4</text>
   </g>
   <g id="text_51">
    <g id="patch_51">
     <path d="M 376.953761 205.488837
L 387.697449 205.488837
L 387.697449 199.984759
L 376.953761 199.984759
z
" style="fill: #ffffff"/>
    </g>
    <text style="font-size: 5.2px; font-family: 'Liberation Sans'; text-anchor: start; fill: #586874" x="377.265761" y="204.082501" transform="rotate(-0 377.265761 204.082501)">71.5</text>
   </g>
   <g id="text_52">
    <g id="patch_52">
     <path d="M 384.660541 219.995607
L 395.404229 219.995607
L 395.404229 214.491529
L 384.660541 214.491529
z
" style="fill: #ffffff"/>
    </g>
    <text style="font-size: 5.2px; font-family: 'Liberation Sans'; text-anchor: start; fill: #586874" x="384.972541" y="218.589271" transform="rotate(-0 384.972541 218.589271)">78.6</text>
   </g>
   <g id="text_53">
    <g id="patch_53">
     <path d="M 392.367322 234.502377
L 403.111009 234.502377
L 403.111009 228.998299
L 392.367322 228.998299
z
" style="fill: #ffffff"/>
    </g>
    <text style="font-size: 5.2px; font-family: 'Liberation Sans'; text-anchor: start; fill: #586874" x="392.679322" y="233.096041" transform="rotate(-0 392.679322 233.096041)">85.8</text>
   </g>
   <g id="text_54">
    <g id="patch_54">
     <path d="M 400.074102 249.009147
L 410.817789 249.009147
L 410.817789 243.505069
L 400.074102 243.505069
z
" style="fill: #ffffff"/>
    </g>
    <text style="font-size: 5.2px; font-family: 'Liberation Sans'; text-anchor: start; fill: #586874" x="400.386102" y="247.602811" transform="rotate(-0 400.386102 247.602811)">92.9</text>
   </g>
   <g id="text_55">
    <g id="patch_55">
     <path d="M 407.780882 263.515917
L 421.416257 263.515917
L 421.416257 258.011838
L 407.780882 258.011838
z
" style="fill: #ffffff"/>
    </g>
    <text style="font-size: 5.2px; font-family: 'Liberation Sans'; text-anchor: start; fill: #586874" x="408.092882" y="262.109581" transform="rotate(-0 408.092882 262.109581)">100.0</text>
   </g>
   <g id="text_56">
    <g id="patch_56">
     <path d="M 408.430998 195.914369
L 422.066373 195.914369
L 422.066373 190.410291
L 408.430998 190.410291
z
" style="fill: #ffffff"/>
    </g>
    <text style="font-size: 5.2px; font-family: 'Liberation Sans'; text-anchor: start; fill: #586874" x="408.742998" y="194.508033" transform="rotate(-0 408.742998 194.508033)">100.6</text>
   </g>
   <g id="text_57">
    <g id="patch_57">
     <path d="M 420.472842 210.421139
L 434.108217 210.421139
L 434.108217 204.917061
L 420.472842 204.917061
z
" style="fill: #ffffff"/>
    </g>
    <text style="font-size: 5.2px; font-family: 'Liberation Sans'; text-anchor: start; fill: #586874" x="420.784842" y="209.014803" transform="rotate(-0 420.784842 209.014803)">111.7</text>
   </g>
   <g id="text_58">
    <g id="patch_58">
     <path d="M 432.514686 224.927909
L 446.150061 224.927909
L 446.150061 219.423831
L 432.514686 219.423831
z
" style="fill: #ffffff"/>
    </g>
    <text style="font-size: 5.2px; font-family: 'Liberation Sans'; text-anchor: start; fill: #586874" x="432.826686" y="223.521573" transform="rotate(-0 432.826686 223.521573)">122.9</text>
   </g>
   <g id="text_59">
    <g id="patch_59">
     <path d="M 444.55653 239.434679
L 458.191905 239.434679
L 458.191905 233.930601
L 444.55653 233.930601
z
" style="fill: #ffffff"/>
    </g>
    <text style="font-size: 5.2px; font-family: 'Liberation Sans'; text-anchor: start; fill: #586874" x="444.86853" y="238.028343" transform="rotate(-0 444.86853 238.028343)">134.0</text>
   </g>
   <g id="text_60">
    <g id="patch_60">
     <path d="M 456.598374 253.941449
L 470.233749 253.941449
L 470.233749 248.43737
L 456.598374 248.43737
z
" style="fill: #ffffff"/>
    </g>
    <text style="font-size: 5.2px; font-family: 'Liberation Sans'; text-anchor: start; fill: #586874" x="456.910374" y="252.535113" transform="rotate(-0 456.910374 252.535113)">145.1</text>
   </g>
   <g id="text_61">
    <g id="patch_61">
     <path d="M 468.640218 268.448218
L 482.275593 268.448218
L 482.275593 262.94414
L 468.640218 262.94414
z
" style="fill: #ffffff"/>
    </g>
    <text style="font-size: 5.2px; font-family: 'Liberation Sans'; text-anchor: start; fill: #586874" x="468.952218" y="267.041882" transform="rotate(-0 468.952218 267.041882)">156.2</text>
   </g>
   <g id="line2d_36">
    <path d="M 406.469966 271.963104
L 406.469966 181.963104
" clip-path="url(#pa2e8449444)" style="fill: none; stroke-dasharray: 2.59,1.12; stroke-dashoffset: 0; stroke: #20313e; stroke-width: 0.7"/>
   </g>
   <g id="text_62">
    <text style="font-size: 6.7px; font-family: 'Liberation Sans'; text-anchor: start; fill: #20313e" x="298.275591" y="173.963104" transform="rotate(-0 298.275591 173.963104)">Encoder with reconstruction</text>
   </g>
  </g>
  <g id="text_63">
   <text style="font-size: 5.8px; font-family: 'Liberation Sans'; text-anchor: middle; fill: #586874" x="259.370079" y="319.123104" transform="rotate(-0 259.370079 319.123104)">CPU image-pad64 accounting only · native image-pad16 / latent-pad4 differs · not runtime</text>
  </g>
  <g id="legend_1">
   <g id="patch_62">
    <path d="M 182.20586 149.315838
L 194.20586 149.315838
L 194.20586 145.115838
L 182.20586 145.115838
z
" style="fill: #c7e0e0; stroke: #008a96; stroke-linejoin: miter"/>
   </g>
   <g id="text_64">
    <text style="font-size: 6px; font-family: 'Liberation Sans'; text-anchor: start; fill: #20313e" x="199.00586" y="149.315838" transform="rotate(-0 199.00586 149.315838)">Actual source context</text>
   </g>
   <g id="patch_63">
    <path d="M 268.36586 149.315838
L 280.36586 149.315838
L 280.36586 145.115838
L 268.36586 145.115838
z
" style="fill: url(#ha437536ff9); stroke: #81909c; stroke-linejoin: miter"/>
   </g>
   <g id="text_65">
    <text style="font-size: 6px; font-family: 'Liberation Sans'; text-anchor: start; fill: #20313e" x="285.16586" y="149.315838" transform="rotate(-0 285.16586 149.315838)">Replicated padding</text>
   </g>
  </g>
  <g id="legend_2">
   <g id="patch_64">
    <path d="M 152.861172 302.020409
L 164.861172 302.020409
L 164.861172 297.820409
L 152.861172 297.820409
z
" style="fill: #008a96"/>
   </g>
   <g id="text_66">
    <text style="font-size: 6px; font-family: 'Liberation Sans'; text-anchor: start; fill: #20313e" x="169.661172" y="302.020409" transform="rotate(-0 169.661172 302.020409)">One 512 crop or four 256 cores</text>
   </g>
   <g id="patch_65">
    <path d="M 265.03586 302.020409
L 277.03586 302.020409
L 277.03586 297.820409
L 265.03586 297.820409
z
" style="fill: #bf783d"/>
   </g>
   <g id="text_67">
    <text style="font-size: 6px; font-family: 'Liberation Sans'; text-anchor: start; fill: #20313e" x="281.83586" y="302.020409" transform="rotate(-0 281.83586 302.020409)">Four patches with halo 32 or 64</text>
   </g>
  </g>
 </g>
 <defs>
  <clipPath id="p9bfa94ba18">
   <rect x="94.724855" y="19.963104" width="90.669975" height="104.4"/>
  </clipPath>
  <clipPath id="p50e2780959">
   <rect x="348.907532" y="19.963104" width="90.669975" height="104.4"/>
  </clipPath>
  <clipPath id="pfb6b83c34a">
   <rect x="44.092913" y="181.963104" width="189.340157" height="90"/>
  </clipPath>
  <clipPath id="pa2e8449444">
   <rect x="298.275591" y="181.963104" width="189.340157" height="90"/>
  </clipPath>
 </defs>
 <defs>
  <pattern id="ha437536ff9" patternUnits="userSpaceOnUse" x="0" y="0" width="72" height="72">
   <rect x="0" y="0" width="73" height="73" fill="#e8ecee"/>
   <path d="M -36 36
L 36 -36
M -33 39
L 39 -33
M -30 42
L 42 -30
M -27 45
L 45 -27
M -24 48
L 48 -24
M -21 51
L 51 -21
M -18 54
L 54 -18
M -15 57
L 57 -15
M -12 60
L 60 -12
M -9 63
L 63 -9
M -6 66
L 66 -6
M -3 69
L 69 -3
M 0 72
L 72 0
M 3 75
L 75 3
M 6 78
L 78 6
M 9 81
L 81 9
M 12 84
L 84 12
M 15 87
L 87 15
M 18 90
L 90 18
M 21 93
L 93 21
M 24 96
L 96 24
M 27 99
L 99 27
M 30 102
L 102 30
M 33 105
L 105 33
M 36 108
L 108 36
" style="fill: #81909c; stroke: #81909c; stroke-width: 1.0; stroke-linecap: butt; stroke-linejoin: miter"/>
  </pattern>
 </defs>
</svg>
